<?xml version="1.0" encoding="utf-8"?>
<!-- Generator: Adobe Illustrator 16.0.0, SVG Export Plug-In . SVG Version: 6.00 Build 0)  -->
<!DOCTYPE svg PUBLIC "-//W3C//DTD SVG 1.1//EN" "http://www.w3.org/Graphics/SVG/1.1/DTD/svg11.dtd">
<svg version="1.1" id="Layer_1" xmlns="http://www.w3.org/2000/svg" xmlns:xlink="http://www.w3.org/1999/xlink" x="0px" y="0px"
	 width="177.834px" height="101.666px" viewBox="0 0 177.834 101.666" enable-background="new 0 0 177.834 101.666"
	 xml:space="preserve">
<g>
	<polygon fill="#f6c525" points="14.418,8.832 14.418,29.469 9.363,29.469 9.363,8.832 1.5,8.832 1.5,4.104 22.281,4.104 
		22.281,8.832 	"/>
	<path fill="#f6c525" d="M25.886,18.722h7.331c-0.166-2.247-1.59-3.204-3.604-3.204C27.65,15.518,26.295,16.529,25.886,18.722
		 M37.884,20.353c0,0.563-0.036,1.178-0.089,1.594H25.868c0.18,2.492,2.09,3.953,4.28,3.953c1.496,0,3.099-0.598,4.364-1.685
		l2.726,3.044c-1.978,1.83-4.436,2.664-7.357,2.664c-5.273,0-8.96-3.68-8.96-9.188c0-5.507,3.562-9.294,8.728-9.294
		C34.619,11.441,37.884,14.881,37.884,20.353"/>
	<path fill="#f6c525" d="M145.889,18.722h7.332c-0.166-2.247-1.59-3.204-3.604-3.204C147.653,15.518,146.299,16.529,145.889,18.722
		 M157.887,20.353c0,0.563-0.035,1.178-0.088,1.594h-11.928c0.182,2.492,2.09,3.953,4.28,3.953c1.496,0,3.101-0.598,4.364-1.685
		l2.726,3.044c-1.978,1.83-4.437,2.664-7.356,2.664c-5.273,0-8.961-3.68-8.961-9.188c0-5.507,3.563-9.294,8.729-9.294
		C154.622,11.441,157.887,14.881,157.887,20.353"/>
	<path fill="#f6c525" d="M96.598,50.409h7.331c-0.166-2.248-1.591-3.204-3.604-3.204C98.361,47.205,97.006,48.217,96.598,50.409
		 M108.596,52.039c0,0.563-0.036,1.179-0.09,1.596H96.58c0.18,2.49,2.088,3.951,4.279,3.951c1.496,0,3.1-0.597,4.364-1.684
		l2.726,3.044c-1.978,1.83-4.436,2.663-7.357,2.663c-5.272,0-8.959-3.678-8.959-9.187c0-5.508,3.562-9.295,8.728-9.295
		C105.33,43.128,108.596,46.568,108.596,52.039"/>
	<path fill="#f6c525" d="M127.902,79.272h7.331c-0.166-2.247-1.59-3.204-3.604-3.204C129.666,76.068,128.312,77.08,127.902,79.272
		 M139.9,80.903c0,0.562-0.035,1.178-0.089,1.595h-11.927c0.18,2.491,2.089,3.952,4.279,3.952c1.496,0,3.1-0.598,4.365-1.685
		l2.725,3.045c-1.978,1.83-4.436,2.663-7.356,2.663c-5.272,0-8.96-3.679-8.96-9.187s3.563-9.295,8.729-9.295
		C136.636,71.992,139.9,75.432,139.9,80.903"/>
	<path fill="#f6c525" d="M53.821,11.822l-0.706,4.691c-0.78-0.344-1.903-0.561-2.863-0.561c-2.174,0-3.696,1.341-3.696,3.95v9.565
		h-4.729V11.912h4.584v1.921c1.105-1.667,2.772-2.392,4.946-2.392C52.372,11.441,53.168,11.587,53.821,11.822"/>
	<path fill="#f6c525" d="M68.675,11.822l-0.706,4.691c-0.779-0.344-1.903-0.561-2.863-0.561c-2.174,0-3.696,1.341-3.696,3.95v9.565
		h-4.729V11.912h4.584v1.921c1.105-1.667,2.772-2.392,4.946-2.392C67.226,11.441,68.023,11.587,68.675,11.822"/>
	<rect x="71.536" y="11.912" fill="#f6c525" width="4.729" height="17.557"/>
	<path fill="#f6c525" d="M88.021,16.116v6.414c0,2.174,1.062,2.99,2.471,2.99c1.005,0,1.485-0.121,2.21-0.521l1.84,3.626
		c-1.75,1.069-2.701,1.296-4.828,1.296c-4.099,0-6.421-2.445-6.421-7.012v-6.794h-4.165v-4.204h4.165V6.694h4.729v5.218h5.582v4.204
		H88.021z"/>
	<path fill="#f6c525" d="M100.919,20.682c0,2.845,1.994,4.838,4.657,4.838c2.682,0,4.674-1.993,4.674-4.838
		c0-2.844-1.992-4.837-4.674-4.837C102.913,15.845,100.919,17.838,100.919,20.682 M115.088,20.682c0,5.29-4.04,9.241-9.512,9.241
		c-5.453,0-9.477-3.951-9.477-9.241s4.023-9.24,9.477-9.24C111.048,11.441,115.088,15.392,115.088,20.682"/>
	<rect x="118.582" y="11.912" fill="#f6c525" width="4.729" height="17.557"/>
	<path fill="#f6c525" d="M139.905,11.822l-0.706,4.691c-0.779-0.344-1.902-0.561-2.863-0.561c-2.174,0-3.695,1.341-3.695,3.95v9.565
		h-4.729V11.912h4.584v1.921c1.104-1.667,2.772-2.392,4.946-2.392C138.456,11.441,139.254,11.587,139.905,11.822"/>
	<path fill="#f6c525" d="M168.854,15.373c-1.812,0-2.699,0.634-2.699,1.594c0,1.033,1.269,1.27,2.863,1.505l1.559,0.235
		c3.822,0.58,5.924,2.266,5.924,5.254c0,3.624-2.971,5.961-8.063,5.961c-2.392,0-5.526-0.471-7.81-2.065l1.866-3.587
		c1.486,0.997,3.352,1.721,5.98,1.721c2.191,0,3.242-0.616,3.242-1.648c0-0.852-0.869-1.322-2.918-1.612l-1.43-0.199
		c-4.041-0.563-6.07-2.338-6.07-5.327c0-3.604,2.79-5.744,7.41-5.744c2.791,0,5.037,0.508,7.338,1.667l-1.594,3.68
		C173.059,16.134,170.829,15.373,168.854,15.373"/>
	<path fill="#f6c525" d="M74.535,52.354c0,2.683,1.757,4.838,4.529,4.838c2.699,0,4.529-2.064,4.529-4.838
		c0-2.771-1.83-4.837-4.529-4.837C76.292,47.518,74.535,49.673,74.535,52.354 M83.358,45.416V35.322h4.71v25.819h-4.619v-1.938
		c-1.16,1.431-2.845,2.392-5.255,2.392c-4.856,0-8.497-3.969-8.497-9.241c0-5.271,3.641-9.239,8.497-9.239
		C80.568,43.115,82.198,44.039,83.358,45.416"/>
	<path fill="#f6c525" d="M54.645,75.144l-3.406,2.845c-1.087-1.16-2.211-1.759-3.751-1.759c-2.446,0-4.402,1.921-4.402,4.838
		c0,2.937,1.938,4.839,4.384,4.839c1.522,0,2.808-0.688,3.823-1.776l3.37,2.881c-1.667,2.12-4.094,3.298-7.048,3.298
		c-5.598,0-9.349-3.932-9.349-9.241c0-5.308,3.751-9.239,9.349-9.239C50.569,71.828,53.033,73.023,54.645,75.144"/>
	<rect x="57.704" y="72.299" fill="#f6c525" width="4.729" height="17.558"/>
	<path fill="#f6c525" d="M79.027,72.208L78.321,76.9c-0.779-0.344-1.903-0.562-2.863-0.562c-2.174,0-3.696,1.342-3.696,3.95v9.566
		h-4.729V72.298h4.584v1.922c1.105-1.667,2.772-2.392,4.946-2.392C77.578,71.828,78.375,71.973,79.027,72.208"/>
	<path fill="#f6c525" d="M85.042,81.068c0,2.682,1.757,4.837,4.529,4.837c2.7,0,4.529-2.064,4.529-4.837
		c0-2.771-1.829-4.838-4.529-4.838C86.798,76.23,85.042,78.387,85.042,81.068 M93.955,74.237v-1.938h4.62v24.804h-4.711v-9.077
		c-1.159,1.377-2.79,2.283-5.163,2.283c-4.856,0-8.498-3.968-8.498-9.24s3.642-9.241,8.498-9.241
		C91.11,71.827,92.795,72.787,93.955,74.237"/>
	<path fill="#f6c525" d="M119.482,72.285v17.569h-4.528v-1.411c-1.378,1.23-2.888,1.773-4.591,1.773
		c-2.426,0-4.444-1.122-5.821-2.825c-1.124-1.377-1.774-3.188-1.774-5.797v-9.31h4.709v9.492c0,1.594,0.326,2.391,0.869,3.007
		c0.725,0.796,1.583,1.086,2.489,1.086c1.991,0,3.286-1.34,3.938-2.173V72.285H119.482z"/>
	<path fill="#f6c525" d="M60.096,95.278c1.668,0,3.015,1.276,3.015,2.943s-1.347,2.944-3.015,2.944
		c-1.667,0-3.014-1.277-3.014-2.944S58.429,95.278,60.096,95.278"/>
	<path fill="#f6c525" d="M74.034,1.108c1.668,0,3.015,1.276,3.015,2.943s-1.347,2.944-3.015,2.944c-1.667,0-3.014-1.277-3.014-2.944
		S72.367,1.108,74.034,1.108"/>
	<path fill="#f6c525" d="M120.917,1.108c1.668,0,3.015,1.276,3.015,2.943s-1.347,2.944-3.015,2.944
		c-1.667,0-3.015-1.277-3.015-2.944S119.25,1.108,120.917,1.108"/>
</g>
</svg>
