<?xml version="1.0" encoding="utf-8"?>
<!-- Generator: Adobe Illustrator 16.0.0, SVG Export Plug-In . SVG Version: 6.00 Build 0)  -->
<!DOCTYPE svg PUBLIC "-//W3C//DTD SVG 1.1//EN" "http://www.w3.org/Graphics/SVG/1.1/DTD/svg11.dtd">
<svg version="1.1" id="Layer_1" xmlns="http://www.w3.org/2000/svg" xmlns:xlink="http://www.w3.org/1999/xlink" x="0px" y="0px"
	 width="300px" height="300px" viewBox="0 0 300 300" enable-background="new 0 0 300 300" xml:space="preserve">
<path fill="#0000E6" d="M300.5,56.65c-11.073,4.912-22.978,8.23-35.468,9.724c12.749-7.643,22.543-19.744,27.152-34.166
	c-11.933,7.079-25.147,12.217-39.216,14.985c-11.264-12.001-27.313-19.5-45.075-19.5c-34.102,0-61.754,27.648-61.754,61.752
	c0,4.84,0.546,9.553,1.599,14.073c-51.324-2.575-96.826-27.161-127.284-64.521c-5.315,9.12-8.361,19.727-8.361,31.045
	c0,21.424,10.901,40.326,27.472,51.399c-10.123-0.32-19.645-3.098-27.971-7.724c-0.006,0.257-0.006,0.516-0.006,0.777
	c0,29.919,21.286,54.878,49.537,60.552c-5.182,1.412-10.637,2.166-16.269,2.166c-3.979,0-7.848-0.39-11.619-1.108
	c7.859,24.533,30.665,42.389,57.688,42.886c-21.135,16.563-47.761,26.435-76.695,26.435c-4.984,0-9.9-0.291-14.731-0.863
	c27.33,17.522,59.789,27.747,94.663,27.747c113.587,0,175.702-94.098,175.702-175.704c0-2.677-0.059-5.34-0.18-7.99
	C281.752,79.91,292.221,69.034,300.5,56.65z"/>
</svg>
